<svg width="158" height="55" viewBox="0 0 158 55" fill="none" xmlns="http://www.w3.org/2000/svg">
<path d="M18.9721 8.16406C23.7928 8.16406 27.9014 9.86644 31.298 13.2712C34.7028 16.6678 36.4051 20.7764 36.4051 25.5971C36.4051 30.4219 34.7028 34.5346 31.298 37.9394C27.9014 41.3359 23.7928 43.0301 18.9721 43.0301C14.1473 43.0301 10.0346 41.3359 6.62984 37.9394C3.23326 34.5346 1.53906 30.4219 1.53906 25.5971C1.53906 20.7764 3.23326 16.6678 6.62984 13.2712C10.0346 9.86644 14.1473 8.16406 18.9721 8.16406ZM26.1417 32.7831C28.1265 30.8106 29.1209 28.4126 29.1209 25.5971C29.1209 22.7939 28.1265 20.3999 26.1417 18.4111C24.1652 16.4386 21.7753 15.4483 18.9721 15.4483C16.1566 15.4483 13.7586 16.4386 11.7861 18.4111C9.80952 20.3999 8.82329 22.7939 8.82329 25.5971C8.82329 28.4126 9.80952 30.8106 11.7861 32.7831C13.8363 34.7597 16.2303 35.7459 18.9721 35.7459C21.7098 35.7459 24.0997 34.7597 26.1417 32.7831Z" fill="#2A9DFC"/>
<path d="M52.0587 15.1347C55.8767 14.8318 59.036 15.8181 61.5363 18.0975C64.2086 20.5651 65.5467 24.019 65.5467 28.4591V41.8326H58.77V28.6228H58.7209V28.5082C58.7209 26.6749 58.0743 25.1157 56.7893 23.8266C55.5125 22.5417 53.9493 21.8951 52.1078 21.8951C50.2417 21.9728 48.6784 22.6317 47.4262 23.8757C46.1044 25.1975 45.4824 26.7567 45.5601 28.5573V28.6228H45.511V41.8326H38.2268V14.9219H45.511V18.4085C47.1357 16.4687 49.3168 15.3761 52.0587 15.1347Z" fill="#2A9DFC"/>
<path d="M93.9493 29.6081C93.9821 30.3406 93.9821 30.7703 93.9493 30.9013L74.3883 30.8522C74.6584 31.6502 75.1618 32.4154 75.8943 33.1438C77.2447 34.4329 78.808 35.0754 80.5758 35.0754C82.4501 35.0017 84.0133 34.3388 85.2574 33.0947L85.4702 32.8819L92.2306 35.0263C90.7451 37.3507 89.1859 39.0162 87.549 40.0188C85.7157 41.1974 83.4077 41.8031 80.6249 41.8358C76.946 41.8685 73.7908 40.5877 71.1636 37.9891C68.52 35.3823 67.1859 32.2231 67.1532 28.5114C67.1205 24.8365 68.4013 21.6814 70.9999 19.0501C73.6067 16.4106 76.7659 15.0724 80.4776 15.0397C84.1525 15.0069 87.3076 16.2919 89.9389 18.8864C92.5784 21.485 93.9166 24.6442 93.9493 28.3641V29.6081ZM80.5267 21.8492C78.6811 21.8492 77.122 22.4958 75.8452 23.7807C75.1781 24.5133 74.7075 25.2376 74.4374 25.9578H86.6651C86.3909 25.2376 85.9039 24.4969 85.2083 23.7316C83.8865 22.4794 82.3273 21.8492 80.5267 21.8492Z" fill="#2A9DFC"/>
<path d="M117.473 8.01758H125.019V27.5295C125.019 31.765 123.419 35.2843 120.223 38.0875C117.35 40.5879 114.109 41.836 110.5 41.836C107.03 41.836 103.871 40.6206 101.022 38.1857C97.7239 35.4153 96.0789 31.8264 96.0789 27.4149V8.01758H103.625V27.4149C103.625 29.502 104.37 31.1716 105.868 32.4238C106.563 33.0459 107.378 33.5124 108.307 33.8152C109.113 34.1344 109.845 34.2899 110.5 34.2899C111.122 34.2899 111.9 34.1344 112.841 33.8152C113.876 33.4019 114.69 32.9149 115.28 32.3584C116.041 31.6709 116.581 30.9793 116.9 30.2795C117.281 29.5183 117.473 28.6017 117.473 27.5295V8.01758Z" fill="#2A9DFC"/>
<path d="M142.08 15.0397C145.755 15.0069 148.914 16.2919 151.558 18.8864C154.197 21.485 155.535 24.6442 155.568 28.3641C155.601 32.043 154.312 35.1982 151.705 37.8254C149.106 40.469 145.951 41.8031 142.244 41.8358C139.219 41.8358 136.944 40.8823 135.418 38.9712V51.8209H128.134V15.0888H135.418V17.9043C136.846 16.0627 139.068 15.1051 142.08 15.0397ZM146.876 33.0947C148.194 31.777 148.816 30.2138 148.742 28.4132C148.742 26.5717 148.104 25.0084 146.827 23.7316C145.505 22.4794 143.946 21.8492 142.145 21.8492C140.3 21.8492 138.733 22.4958 137.448 23.7807C136.171 25.1353 135.532 26.6944 135.532 28.4623C135.598 30.3406 136.257 31.8998 137.513 33.1438C138.79 34.4329 140.349 35.0754 142.195 35.0754C144.061 35.0017 145.62 34.3388 146.876 33.0947Z" fill="#2A9DFC"/>
<mask id="mask0_472_39575" style="mask-type:luminance" maskUnits="userSpaceOnUse" x="14" y="15" width="9" height="20">
<path d="M14.6011 15.7148H22.3846V34.2896H14.6011V15.7148Z" fill="white"/>
</mask>
<g mask="url(#mask0_472_39575)">
<path d="M14.6133 25.9399L21.9221 15.7461L19.5895 24.79L22.3763 24.1025L15.5177 34.2922L17.7766 25.4038L14.6133 25.9399Z" fill="#EBCB4F"/>
</g>
<mask id="mask1_472_39575" style="mask-type:luminance" maskUnits="userSpaceOnUse" x="14" y="25" width="5" height="10">
<path d="M14.6667 25.1426H18.8572V34.2888H14.6667V25.1426Z" fill="white"/>
</mask>
<g mask="url(#mask1_472_39575)">
<path d="M17.7768 25.4004H18.4929L15.5178 34.2888L17.7768 25.4004Z" fill="#A48818"/>
</g>
</svg>
